<svg xmlns="http://www.w3.org/2000/svg" viewBox="0 0 128 128" aria-hidden="true">
  <g fill="#000000" stroke="#000000" stroke-linejoin="round">
    <g transform="translate(64 64)">
      <rect x="38" y="-9" width="25" height="18" rx="2" transform="rotate(-44)" />
      <rect x="40" y="-9" width="27" height="18" rx="2" transform="rotate(-21)" />
      <rect x="41" y="-9" width="28" height="18" rx="2" />
      <rect x="40" y="-9" width="27" height="18" rx="2" transform="rotate(22)" />
      <rect x="38" y="-9" width="25" height="18" rx="2" transform="rotate(45)" />
    </g>
    <path
      d="M81.2 20.5C59.5 14.4 35.7 23.1 23.9 42.7 9.9 65.9 17.5 96 40.8 110c14.7 8.8 32.1 9 46.2 1.8"
      fill="none"
      stroke-width="14.6"
      stroke-linecap="butt"
    />
    <path d="M76.1 16.8l20.1 7.5-2 21.2-22.6-5.7z" />
    <path
      d="M61.8 56.6c10.7-3.7 23.1 1.1 28.3 11.6 6.7 13.6.4 29.8-14 36.4-17 7.8-38.2-.3-48.3-17.4 7.8 6 18.4 7.4 25.5 2.8 5.7-3.7 8.4-10.2 6.1-16.2-2.7-7 0-14.7 2.4-17.2z"
    />
  </g>
</svg>
