<svg xmlns="http://www.w3.org/2000/svg" viewBox="0 0 128 128" aria-hidden="true">
  <g fill="#000000">
    <g transform="translate(64 64)">
      <rect x="35.8" y="-9.5" width="25.5" height="19" rx="2.8" transform="rotate(-47)" />
      <rect x="39.2" y="-9.4" width="27.5" height="18.8" rx="2.8" transform="rotate(-23)" />
      <rect x="42" y="-9.2" width="29" height="18.4" rx="2.8" />
      <rect x="39.4" y="-9.4" width="27.5" height="18.8" rx="2.8" transform="rotate(23)" />
      <rect x="35.8" y="-9.5" width="25.5" height="19" rx="2.8" transform="rotate(47)" />
    </g>
    <path
      fill-rule="evenodd"
      d="M77.8 17.1C53.3 10.7 27.9 20.6 15.4 41.7 0.6 66.6 8.4 99 33.3 114.2c18.1 11 41.1 10.6 59.5-.6l-1.9-16.7c-14.4 11.8-35.1 14.2-51.8 4-19.1-11.7-25-36.7-13.2-55.6 10.9-17.5 32.3-24.5 52.3-18.3l-4.6 16.2c-13.9-3.7-28.6 1.9-36 13.8-7.8 12.6-3.8 29.1 9.1 37 10.5 6.4 23.5 4.7 32.1-3.1 11.4-10.3 15.2-26.1 9.5-39.5-2.4-5.6-6-10.5-10.5-14.3l4.8-18.5z"
    />
    <path
      d="M74.3 18.8L96.8 25.8L93.8 46.7L70 41.1z"
    />
    <path
      d="M62.4 57.5C73.9 52.2 88.4 57.3 95.4 69.9C105.5 88 94.4 110.8 72.5 116.1C53.6 120.7 32.9 112.1 22.6 93.5C30.8 100.5 43 103.7 52.5 98.4C61.4 93.5 64.9 84.1 60.6 76.4C56.8 69.6 57.2 61.6 62.4 57.5z"
    />
    <path
      d="M24.1 95.8C39.8 108.9 61.2 113.6 85.6 107.2C66.1 120.7 39.6 117.1 24.1 95.8z"
    />
  </g>
</svg>
