<svg width="260" height="72" viewBox="0 0 260 72" fill="none" xmlns="http://www.w3.org/2000/svg" role="img" aria-labelledby="title">
  <title id="title">한국종합안전</title>
  <rect width="260" height="72" fill="none"/>
  <ellipse cx="42" cy="36" rx="38" ry="24" fill="#3DBC3D"/>
  <path d="M15 23h8v10h18V23h8v26h-8V38H23v11h-8V23Zm40 0h29v7H73v19h-8V30H55v-7Z" fill="#fff"/>
  <path d="M88 27c5-4 18-5 27 2l-4 6c-6-5-15-5-19-1-2 2-1 4 4 5l7 1c11 2 15 7 10 14-6 8-23 8-34-1l5-6c8 6 19 6 22 2 2-3 0-5-6-6l-7-1c-10-2-13-8-5-15Z" fill="#fff"/>
  <text x="88" y="47" fill="#00B736" font-family="'Noto Sans KR', Arial, sans-serif" font-size="30" font-weight="700">한국종합안전</text>
</svg>
